<svg xmlns="http://www.w3.org/2000/svg" xmlns:xlink="http://www.w3.org/1999/xlink" version="1.0" x="0px" y="0px" style="enable-background:new 0 0 841.89 595.28;" xml:space="preserve" viewBox="131.97 208.22 576.65 182.17">
<style type="text/css">
	.st0{clip-path:url(#SVGID_2_);}
	.st1{fill:#FFFFFF;}
	.st2{fill:#0059A3;}
</style>
<g id="Layer_2">
	<g>
		<defs>
			<path id="SVGID_1_" d="M377.46,266.77c0.32-28.51,15.16-37.43,23.23-37.43c11.28,0,15.94,8.61,16.71,12.43     c0.76,3.81,5.03,6.86,6.4,0.61c1.37-6.25,14.65-25.31,30.96-25.31c14.94,0,20.12,15.41,19.67,28.52     c-1.22,35.68-47.19,64.15-53.24,82.14C415.82,316.83,377.08,301.08,377.46,266.77z"/>
		</defs>
		<clipPath id="SVGID_2_">
			<use xlink:href="#SVGID_1_" style="overflow:visible;"/>
		</clipPath>
		<g class="st0">
			<g>
				<g>
					<polygon class="st1" points="532.41,256.68 532.41,244.75 431.34,255.41 431.34,267.34      "/>
					<polygon class="st1" points="532.41,208.95 408.66,222 431.34,219.61      "/>
					<polygon class="st1" points="371.88,321.35 532.41,304.42 532.41,292.48 371.88,309.41      "/>
					<polygon class="st1" points="407.55,222.12 395.66,223.37 395.66,247.24 371.88,249.75 371.88,261.68 395.66,259.17        395.66,283.04 371.88,285.55 371.88,297.48 532.41,280.55 532.41,268.61 431.34,279.28 407.55,281.78 407.55,257.92        431.34,255.41 431.34,243.48 407.55,245.98      "/>
					<polygon class="st1" points="431.34,243.48 532.41,232.81 532.41,220.88 431.34,231.54      "/>
				</g>
				<g>
					<polygon class="st2" points="532.41,292.48 371.88,309.41 371.88,297.48 532.41,280.55      "/>
				</g>
				<g>
					<polygon class="st2" points="532.41,304.42 371.88,321.35 371.88,333.28 532.41,316.35      "/>
				</g>
				<g>
					<polygon class="st2" points="395.66,223.37 371.88,225.88 371.88,237.81 371.88,249.75 395.66,247.24      "/>
					<polygon class="st2" points="371.88,261.68 371.88,273.61 371.88,285.55 395.66,283.04 395.66,259.17      "/>
					<polygon class="st2" points="532.41,220.88 532.41,208.95 431.34,219.61 407.55,222.12 407.55,245.98 431.34,243.48        431.34,231.54      "/>
					<polygon class="st2" points="407.55,281.78 431.34,279.28 532.41,268.61 532.41,256.68 431.34,267.34 431.34,255.41        407.55,257.92      "/>
					<polygon class="st2" points="532.41,244.75 532.41,232.81 431.34,243.48 431.34,255.41      "/>
				</g>
			</g>
		</g>
	</g>
</g>
<g id="logo">
	<path d="M630.93,261.92c3.32-3.86,5.59-6.12,5.08-8.79c-0.51-2.68-9.58-4.54-13.62-0.81c-11.94-9.48-9.5,1.62-7.77,4.1   c-14.11,9.92-23.65,36.03-15.97,56.41c7.51,19.92,30.15,22.38,42.02,8.38C651.19,308.8,649.31,286.02,630.93,261.92 M621.75,319.27   c-7.71-0.39-12.12-9.52-11.58-18.85c0.95-16.44,14.69-33.04,14.69-33.04c3.21,2.93,12.86,18.8,12.34,30.94   C636.68,310.18,629.46,319.66,621.75,319.27z"/>
	<g>
		<g>
			<path d="M232.38,385.51l3.89-4.66c2.69,2.22,5.51,3.63,8.93,3.63c2.69,0,4.32-1.07,4.32-2.82v-0.09c0-1.67-1.03-2.52-6.03-3.8     c-6.03-1.54-9.92-3.21-9.92-9.15v-0.08c0-5.43,4.36-9.02,10.47-9.02c4.36,0,8.08,1.37,11.11,3.8l-3.42,4.96     c-2.65-1.84-5.26-2.95-7.78-2.95c-2.52,0-3.85,1.15-3.85,2.61v0.09c0,1.97,1.28,2.61,6.46,3.93c6.07,1.58,9.49,3.76,9.49,8.98     v0.09c0,5.94-4.53,9.28-10.99,9.28C240.54,390.3,235.97,388.72,232.38,385.51z"/>
		</g>
		<path d="M278.47,359.43c-9.23,0-15.94,6.97-15.94,15.48V375c0,8.51,6.63,15.39,15.86,15.39c9.23,0,15.94-6.97,15.94-15.47v-0.09    C294.33,366.32,287.7,359.43,278.47,359.43z M287.45,375c0,5.13-3.68,9.32-8.98,9.32c-5.3,0-9.06-4.27-9.06-9.41v-0.09    c0-5.13,3.68-9.32,8.98-9.32c5.3,0,9.06,4.28,9.06,9.41V375z"/>
		<g>
			<polygon points="301.9,359.95 307.97,359.95 321.99,378.37 321.99,359.95 328.49,359.95 328.49,389.87 322.89,389.87      308.4,370.85 308.4,389.87 301.9,389.87    "/>
		</g>
		<g>
			<path d="M336.87,375v-0.09c0-8.51,6.63-15.48,15.69-15.48c5.39,0,8.64,1.45,11.76,4.1l-4.15,5c-2.31-1.92-4.36-3.04-7.82-3.04     c-4.79,0-8.59,4.23-8.59,9.32v0.09c0,5.47,3.76,9.49,9.06,9.49c2.39,0,4.53-0.6,6.2-1.8v-4.28h-6.62v-5.69h13v13     c-3.08,2.61-7.31,4.74-12.78,4.74C343.29,390.38,336.87,383.84,336.87,375z"/>
		</g>
		<g>
			<path d="M388.35,375v-0.09c0-8.51,6.41-15.48,15.6-15.48c5.64,0,9.02,1.88,11.8,4.62l-4.19,4.83c-2.31-2.1-4.66-3.38-7.65-3.38     c-5.04,0-8.68,4.19-8.68,9.32v0.09c0,5.13,3.55,9.41,8.68,9.41c3.42,0,5.51-1.37,7.86-3.5l4.19,4.23     c-3.08,3.29-6.5,5.34-12.27,5.34C394.89,390.38,388.35,383.59,388.35,375z"/>
		</g>
		<path d="M437.56,359.43c-9.24,0-15.95,6.97-15.95,15.48V375c0,8.51,6.63,15.39,15.86,15.39c9.23,0,15.94-6.97,15.94-15.47v-0.09    C453.42,366.32,446.79,359.43,437.56,359.43z M446.54,375c0,5.13-3.68,9.32-8.98,9.32c-5.3,0-9.06-4.27-9.06-9.41v-0.09    c0-5.13,3.68-9.32,8.98-9.32c5.3,0,9.06,4.28,9.06,9.41V375z"/>
		<g>
			<polygon points="460.99,359.95 467.06,359.95 481.08,378.37 481.08,359.95 487.58,359.95 487.58,389.87 481.98,389.87      467.49,370.85 467.49,389.87 460.99,389.87    "/>
		</g>
		<g>
			<polygon points="503.66,366.02 494.55,366.02 494.55,359.95 519.35,359.95 519.35,366.02 510.24,366.02 510.24,389.87      503.66,389.87    "/>
		</g>
		<g>
			<polygon points="526.96,359.95 549.53,359.95 549.53,365.8 533.5,365.8 533.5,371.87 547.61,371.87 547.61,377.73 533.5,377.73      533.5,384.02 549.75,384.02 549.75,389.87 526.96,389.87    "/>
		</g>
		<g>
			<path d="M556.08,385.51l3.89-4.66c2.69,2.22,5.51,3.63,8.94,3.63c2.69,0,4.32-1.07,4.32-2.82v-0.09c0-1.67-1.03-2.52-6.03-3.8     c-6.03-1.54-9.92-3.21-9.92-9.15v-0.08c0-5.43,4.36-9.02,10.47-9.02c4.36,0,8.08,1.37,11.11,3.8l-3.42,4.96     c-2.65-1.84-5.26-2.95-7.78-2.95c-2.52,0-3.85,1.15-3.85,2.61v0.09c0,1.97,1.28,2.61,6.45,3.93c6.07,1.58,9.49,3.76,9.49,8.98     v0.09c0,5.94-4.53,9.28-10.99,9.28C564.25,390.3,559.67,388.72,556.08,385.51z"/>
		</g>
		<g>
			<polygon points="594.34,366.02 585.24,366.02 585.24,359.95 610.03,359.95 610.03,366.02 600.93,366.02 600.93,389.87      594.34,389.87    "/>
		</g>
	</g>
	<path d="M188.7,237.5c-34.76,3.81-46.35,24.09-47.42,26.84c-0.82,2.1-0.61,2.59,1.68,2.59c2.29,0,33.86-3.5,43-3.05   c9.3,0.46,8.69,10.67,1.37,12.81c-29.88,8.39-47.27,29.73-47.27,40.71c0,8.38,6.1,12.35,13.11,12.35   c20.89,0,42.02-21.71,45.96-26.48c2.48-3.01,4.02-1.12,4.03,0.22c0.04,17.64-18.92,38.46-44.35,38.46   c-18.14,0-26.84-13.88-26.84-25.46c0-21.96,23.79-40.71,23.79-40.71s-12.06,0.46-16.17,0.46c-3.33,0-5.65-2.51-5.75-5.25   c-1.12-28.55,28.29-50.59,54.9-48.66C199.27,223.08,200.44,236.58,188.7,237.5z"/>
	<path d="M219.4,304.17c0.52,5.24,4.09,10.76,8.94,5.46c12.28-14.25,11.07-53.52,10.77-57.76c-0.3-4.25,1.97-5.46,3.64-3.19   c1.67,2.27,9.55,14.86,9.55,34.11c0,23.35-13.93,47.27-24.85,47.27c-24.86,0-22.61-56.97-15.18-75.77   c3.86-9.76,14.1-5.53,14.1,1.37C226.37,265.66,217.88,288.86,219.4,304.17z"/>
	<path d="M345.59,259.64c0,0,3.95-5.36,1.57-8.38c-2.67-3.41-11.22-4.47-19.23,4.51c-10.55,11.82-17.94,36.75-9.95,57.67   c7.64,20,29.03,21.69,38.94,6.53C365.75,306.43,363.43,283.89,345.59,259.64z M340,316.85c-6.98,0-10.86-9.02-10.86-18.81   c0-17.26,12.41-32.96,12.41-32.96c3.41,4.35,11.64,16.64,11.64,29.07C353.19,306.59,346.98,316.85,340,316.85z"/>
	<path d="M281.68,288.12c14.49-0.92,32.63-12.2,32.63-24.24c0-8.92-9.28-15.35-21.33-15.35c-12.05,0-25.33,4.07-30.36,7.11   c-6.56,3.81-1.68,12.81,4.42,10.37c0,0-2.29,10.67-2.9,16.31c-4.95-0.61-5.95,0.3-5.64,1.37c0.31,1.07,2.44,1.98,4.88,5.03   c-0.76,6.71-2.11,36.54-1.81,39.13c0.31,2.61,1.88,3.06,4.12,0.3c1.98-2.44,6.23-8.33,8.21-30.59c2.29,1.98,8.54,10.35,16.16,20.13   c11.18,14.33,14.87,15.37,19.46,16.98c2.48,0.88,5.03-0.55,3.21-3.08C305.31,321.29,295.97,300.63,281.68,288.12z M276.65,264.18   c0,0,17.38-4.42,23.33-3.81c5.18,0.53,6.25,2.74,3.62,6.84c-6.21,9.64-20.48,12.97-28.17,12.83   C276.04,272.27,276.65,264.18,276.65,264.18z"/>
	<path d="M501.61,248.85c4.56,1.48,8.52,9.29,7.42,22.05c-1.8,20.83-15.83,46.72-17.87,56.55c-0.68,3.29-3.24,3.13-4.41,1.32   c-1.12-1.73-3.47-7.03-2.83-20.14c0.87-17.98,14.5-42.62,14.09-58.12C497.95,248.44,499.57,248.19,501.61,248.85z"/>
	<path d="M547.78,263.57c-16.01,0-20.99,4.93-20.99,8.69c0,10.06,17.38,9.35,25.41,10.27c4.65,0.53,10.67,3.56,10.67,11.59   c0,8.87-11.11,16-22.9,22.49c-12.39,6.82-25.16,13.5-30.99,17.52c-3,2.07-4.94-0.6-3.51-3.4c4.14-8.08,11.9-15.69,22.51-22.89   c15.54-10.54,25.52-15.34,21.35-16.87c-2.31-0.84-8.64-1.32-15.15-2.54c-11.18-1.83-18.19-8.34-18.19-17.79   c0-15.35,13.75-22.11,32.81-22.11C558.89,248.53,560.13,263.57,547.78,263.57z"/>
	<path d="M577.94,248.59c5.07,0.43,13.72,7.22,12.76,24.74c-0.76,13.76-12.47,43.36-13.49,54.27c-0.2,2.22-2.4,3.45-4.08,1.4   c-3.28-4.01-4.67-8.37-4.67-20.75c0-12.38,10.62-44.95,4.38-56.92C571.41,248.86,575.13,248.36,577.94,248.59z"/>
	<path d="M577.02,211.91c-1.06-4.18,3.43-4.65,6.61-2.06c2.04,1.67,12.21,11.73,12.21,23.89c0,13.95-19.03,12.11-18.71,0.7   C577.24,230.44,579.45,220.68,577.02,211.91z"/>
	<path d="M703.86,330.31c-12.17-10.5-11.02-40.57-11.63-52.47c-0.6-11.69-15.28-10.79-18.88-5.89c-2.6,14.99-3.48,41.91-11.08,56.7   c-1.1,2-3.9,1.66-4.18-0.62c-0.3-2.4-3.11-8.67-3.11-26.35c0-17.68,2.06-43.19,16.35-52.09c2.6-1.4,4.39-1.4,4.49,0.1   c0.09,1.31-0.38,5.46-0.48,8.16c0,0,5.4-4.1,14.49-4.1c7,0,18.79,7.29,18.79,21.48c0,18.58-3.42,38.3-0.93,53.63   C708.04,331.08,705.5,331.72,703.86,330.31z"/>
	<path d="M460.11,208.22c-13.42,0-29.29,9.91-38.89,26.38c-2.59-5.95-11.83-12.43-22.8-12.43c-8.84,0-33.67,11.05-33.67,46.73   c0,46.05,46.59,55.51,56.01,69.82c0.65,0.99,2.73,1.73,3.53-0.62c7.51-22.18,65.79-47.24,65.79-92.37   C490.06,220.42,473.53,208.22,460.11,208.22z M377.46,266.77c0.32-28.51,15.16-37.43,23.23-37.43c11.28,0,15.94,8.61,16.71,12.43   c0.76,3.81,5.03,6.86,6.4,0.61c1.37-6.25,14.65-25.31,30.96-25.31c14.94,0,20.12,15.41,19.67,28.52   c-1.22,35.68-47.19,64.15-53.24,82.14C415.82,316.83,377.08,301.08,377.46,266.77z"/>
</g>
</svg>